<svg xmlns="http://www.w3.org/2000/svg" width="96" height="23" viewBox="0 0 96 23">
    <g fill="none" fill-rule="evenodd">
        <path fill="#1C2685" d="M32.269 16.727c0 3.463-2.89 6.273-6.454 6.273H7.53C3.38 23 0 19.717 0 15.682c0-2.924 1.782-5.456 4.336-6.616a9.822 9.822 0 0 1-.033-.702C4.303 3.74 8.15 0 12.908 0c3.596 0 6.672 2.14 7.966 5.195a4.247 4.247 0 0 1 2.79-1.013c2.37 0 4.302 1.878 4.302 4.182 0 .833-.252 1.6-.689 2.254 2.857.653 4.992 3.136 4.992 6.11z"/>
        <g fill="#439AFF" fill-rule="nonzero" transform="translate(3.227 3.648)">
            <ellipse cx="19.156" cy="5.71" rx="2.737" ry="2.538"/>
            <ellipse cx="9.749" cy="5.234" opacity=".604" rx="5.644" ry="5.234"/>
            <ellipse cx="5.302" cy="11.579" opacity=".595" rx="5.302" ry="4.917"/>
            <ellipse cx="14.88" cy="11.262" opacity=".847" rx="5.644" ry="5.234"/>
            <ellipse cx="21.38" cy="12.848" opacity=".378" rx="3.934" ry="3.648"/>
        </g>
        <path fill="#090E40" d="M40.483 17.872c-1.936 0-3.386-.5-4.35-1.5-.962-.998-1.444-2.374-1.444-4.125 0-1.066.218-2.025.654-2.876.435-.852 1.089-1.526 1.96-2.02.871-.495 1.931-.743 3.18-.743.513 0 .97.04 1.372.121.402.081.835.217 1.3.407v2.227a5.993 5.993 0 0 0-2.6-.585c-.629 0-1.188.15-1.677.45-.488.3-.868.711-1.14 1.235-.27.523-.406 1.113-.406 1.77 0 1.047.278 1.887.835 2.52.556.632 1.329.949 2.316.949.465 0 .92-.07 1.365-.207a8.563 8.563 0 0 0 1.408-.593l.77 2.099a7.963 7.963 0 0 1-1.771.65c-.62.147-1.21.22-1.772.22zm7.623-.057c-.861 0-1.502-.186-1.924-.557-.42-.371-.631-.904-.631-1.599V5.552h2.526v9.208c0 .314.054.535.16.663.107.129.3.193.581.193.32 0 .605-.038.857-.114v2.113c-.33.066-.608.116-.835.15-.228.033-.472.05-.734.05zm6.84.057c-.949 0-1.752-.188-2.41-.564a3.692 3.692 0 0 1-1.489-1.535c-.334-.647-.501-1.375-.501-2.184 0-.8.167-1.523.501-2.17a3.692 3.692 0 0 1 1.488-1.535c.659-.375 1.462-.563 2.41-.563.94 0 1.739.188 2.397.563a3.645 3.645 0 0 1 1.481 1.535c.33.647.494 1.37.494 2.17 0 .809-.165 1.537-.494 2.184a3.645 3.645 0 0 1-1.481 1.535c-.658.376-1.457.564-2.396.564zm0-2.113c.571 0 1.004-.186 1.3-.557.295-.371.442-.909.442-1.613 0-.695-.147-1.228-.442-1.599-.296-.371-.729-.557-1.3-.557-.581 0-1.021.186-1.322.557-.3.371-.45.904-.45 1.599 0 .704.15 1.242.45 1.613.3.371.741.557 1.322.557zm13.911-6.21v8.08H66.33v-.642c-.358.276-.723.48-1.096.614-.373.133-.772.2-1.198.2-1.094 0-1.912-.272-2.454-.814-.542-.543-.813-1.404-.813-2.584V9.549h2.526v4.854c0 .39.1.687.298.892.199.205.535.307 1.01.307.56 0 1.137-.228 1.727-.685V9.549h2.527zm10.034-3.997v12.077h-2.527v-.528c-.687.514-1.423.77-2.207.77-.736 0-1.387-.159-1.953-.477-.566-.32-1.012-.8-1.336-1.442-.324-.643-.486-1.43-.486-2.363 0-.923.162-1.706.486-2.348.324-.643.77-1.123 1.336-1.442.566-.319 1.217-.478 1.953-.478.784 0 1.52.257 2.207.77v-4.54h2.527zm-4.182 10.121c.552 0 1.104-.195 1.655-.585v-2.984c-.551-.39-1.103-.585-1.655-.585-.562 0-.985.176-1.27.528-.286.352-.429.866-.429 1.542 0 .685.143 1.204.428 1.556.286.352.71.528 1.271.528zm11.152 2.199c-1.597 0-2.795-.39-3.594-1.17-.798-.781-1.198-1.89-1.198-3.327V6.808h2.614v6.567c0 .77.181 1.351.544 1.742.364.39.908.585 1.634.585.726 0 1.27-.195 1.634-.585.363-.39.544-.971.544-1.742V6.808h2.614v6.567c0 1.437-.397 2.546-1.19 3.326-.794.78-1.995 1.17-3.602 1.17zm7.115-11.064h2.614v10.821h-2.614V6.808z"/>
    </g>
</svg>
